<svg width="16" height="16" viewBox="0 0 16 16" fill="none" xmlns="http://www.w3.org/2000/svg">
<path fill-rule="evenodd" clip-rule="evenodd" d="M7.71185 2.33333C7.59556 2.33328 7.48127 2.36365 7.38035 2.42142C7.27942 2.47919 7.19536 2.56236 7.13652 2.66267L6.59585 3.58333C6.42062 3.88166 6.17103 4.12944 5.87143 4.30249C5.57184 4.47554 5.23249 4.56794 4.88652 4.57067L3.82252 4.57933C3.70634 4.58034 3.59244 4.61168 3.4921 4.67027C3.39177 4.72885 3.30849 4.81264 3.25052 4.91333L2.95718 5.42067C2.89935 5.5212 2.86875 5.63509 2.8684 5.75107C2.86805 5.86705 2.89796 5.98112 2.95518 6.082L3.48318 7.01533C3.65308 7.3157 3.74237 7.65491 3.74237 8C3.74237 8.34509 3.65308 8.6843 3.48318 8.98467L2.95518 9.918C2.89806 10.0189 2.86826 10.133 2.86873 10.249C2.8692 10.365 2.89992 10.4789 2.95785 10.5793L3.25052 11.086C3.30841 11.1868 3.39165 11.2707 3.49199 11.3294C3.59233 11.3881 3.70627 11.4196 3.82252 11.4207L4.88652 11.4293C5.23244 11.4319 5.57177 11.5242 5.87137 11.6971C6.17097 11.8701 6.42059 12.1178 6.59585 12.416L7.13652 13.3373C7.19536 13.4376 7.27942 13.5208 7.38035 13.5786C7.48127 13.6364 7.59556 13.6667 7.71185 13.6667H8.29185C8.40803 13.6666 8.52218 13.6362 8.62298 13.5784C8.72378 13.5206 8.80773 13.4375 8.86652 13.3373L9.40785 12.4167C9.58297 12.1184 9.83245 11.8706 10.1319 11.6976C10.4314 11.5245 10.7706 11.4321 11.1165 11.4293L12.1805 11.4207C12.2968 11.4198 12.4109 11.3885 12.5113 11.3299C12.6118 11.2713 12.6952 11.1875 12.7532 11.0867L13.0459 10.5793C13.1038 10.4789 13.1345 10.365 13.135 10.249C13.1354 10.133 13.1056 10.0189 13.0485 9.918L12.5199 8.98467C12.3499 8.68432 12.2606 8.3451 12.2606 8C12.2606 7.6549 12.3499 7.31568 12.5199 7.01533L13.0485 6.082C13.1056 5.98106 13.1354 5.86696 13.135 5.75098C13.1345 5.635 13.1038 5.52114 13.0459 5.42067L12.7532 4.914C12.6952 4.81309 12.6119 4.7291 12.5114 4.67039C12.411 4.61168 12.2969 4.58029 12.1805 4.57933L11.1165 4.57067C10.7707 4.56789 10.4316 4.47554 10.1321 4.30262C9.83263 4.1297 9.5831 3.8821 9.40785 3.584L8.86652 2.662C8.80773 2.56179 8.72378 2.47869 8.62298 2.42092C8.52218 2.36315 8.40803 2.33273 8.29185 2.33267H7.71185V2.33333ZM5.98652 1.98733C6.16313 1.68668 6.41525 1.43741 6.71788 1.26422C7.02052 1.09104 7.36316 0.999952 7.71185 1H8.29185C8.64055 0.999885 8.98322 1.09094 9.28587 1.26413C9.58852 1.43733 9.84063 1.68664 10.0172 1.98733L10.5572 2.90867C10.6156 3.0082 10.6988 3.09087 10.7987 3.1486C10.8986 3.20632 11.0118 3.23713 11.1272 3.238L12.1919 3.24667C12.5404 3.24956 12.8822 3.34347 13.1833 3.51911C13.4844 3.69474 13.7344 3.94601 13.9085 4.248L14.2019 4.75467C14.3754 5.05608 14.4674 5.39754 14.4687 5.74536C14.47 6.09318 14.3805 6.43531 14.2092 6.738L13.6812 7.67133C13.6245 7.77148 13.5947 7.88459 13.5947 7.99967C13.5947 8.11474 13.6245 8.22785 13.6812 8.328L14.2092 9.262C14.3803 9.56466 14.4696 9.90671 14.4682 10.2544C14.4668 10.6021 14.3747 10.9434 14.2012 11.2447L13.9085 11.752C13.7345 12.0541 13.4845 12.3055 13.1834 12.4813C12.8823 12.657 12.5405 12.751 12.1919 12.754L11.1272 12.762C11.0119 12.763 10.8989 12.7938 10.7991 12.8516C10.6993 12.9093 10.6162 12.9919 10.5579 13.0913L10.0172 14.0127C9.84058 14.3133 9.58846 14.5626 9.28582 14.7358C8.98318 14.909 8.64054 15 8.29185 15H7.71185C7.36316 15 7.02052 14.909 6.71788 14.7358C6.41525 14.5626 6.16313 14.3133 5.98652 14.0127L5.44585 13.0913C5.38747 12.9918 5.30425 12.9091 5.20434 12.8514C5.10442 12.7937 4.99124 12.7629 4.87585 12.762L3.81185 12.754C3.4631 12.7512 3.12114 12.6572 2.8199 12.4814C2.51866 12.3057 2.2686 12.0542 2.09452 11.752L1.80185 11.2453C1.62817 10.944 1.53609 10.6025 1.53468 10.2547C1.53328 9.90691 1.62261 9.56474 1.79385 9.262L2.32252 8.32867C2.37919 8.22852 2.40898 8.11541 2.40898 8.00033C2.40898 7.88526 2.37919 7.77215 2.32252 7.672L1.79385 6.73867C1.62261 6.43592 1.53328 6.09375 1.53468 5.74594C1.53609 5.39812 1.62817 5.05669 1.80185 4.75533L2.09518 4.248C2.26924 3.9461 2.51912 3.6949 2.8201 3.51927C3.12109 3.34364 3.46272 3.24967 3.81118 3.24667L4.87518 3.238C4.99057 3.23713 5.10376 3.20632 5.20367 3.1486C5.30358 3.09087 5.3868 3.0082 5.44518 2.90867L5.98518 1.98733H5.98652Z" fill="#B7B7B7"/>
<path fill-rule="evenodd" clip-rule="evenodd" d="M8.00197 6.99999C7.73675 6.99999 7.4824 7.10535 7.29486 7.29289C7.10733 7.48042 7.00197 7.73478 7.00197 7.99999C7.00197 8.26521 7.10733 8.51956 7.29486 8.7071C7.4824 8.89464 7.73675 8.99999 8.00197 8.99999C8.26719 8.99999 8.52154 8.89464 8.70908 8.7071C8.89661 8.51956 9.00197 8.26521 9.00197 7.99999C9.00197 7.73478 8.89661 7.48042 8.70908 7.29289C8.52154 7.10535 8.26719 6.99999 8.00197 6.99999ZM5.66797 7.99999C5.66801 7.69357 5.72841 7.39017 5.84571 7.10709C5.96301 6.82401 6.13492 6.56681 6.35162 6.35017C6.56832 6.13353 6.82557 5.9617 7.10868 5.84448C7.39179 5.72726 7.69522 5.66695 8.00164 5.66699C8.30805 5.66704 8.61146 5.72743 8.89454 5.84473C9.17761 5.96204 9.43481 6.13394 9.65145 6.35065C9.86809 6.56735 10.0399 6.8246 10.1571 7.10771C10.2744 7.39082 10.3347 7.69424 10.3346 8.00066C10.3345 8.6195 10.0886 9.21295 9.65098 9.65048C9.21334 10.088 8.61981 10.3337 8.00097 10.3337C7.38213 10.3336 6.78867 10.0877 6.35115 9.65001C5.91363 9.21236 5.66788 8.61883 5.66797 7.99999Z" fill="#B7B7B7"/>
</svg>
